<svg width="29" height="29" viewBox="0 0 29 29" fill="none" xmlns="http://www.w3.org/2000/svg">
<path fill-rule="evenodd" clip-rule="evenodd" d="M11.8943 15.5453C11.6898 15.5453 11.5054 15.5036 11.3399 15.4213C11.1745 15.3391 10.9995 15.1972 10.8163 14.9957V16.8936H9.8388V11.6935H10.7501V12.2466C10.8683 12.0571 11.0279 11.9033 11.23 11.7853C11.4321 11.6672 11.6555 11.6076 11.9014 11.6076C12.3304 11.6076 12.6945 11.7793 12.9935 12.1215C13.2926 12.4648 13.4427 12.9417 13.4427 13.5544C13.4427 14.1839 13.2914 14.6727 12.9912 15.0208C12.6886 15.3713 12.3233 15.5453 11.8943 15.5453ZM12.2146 12.683C12.0598 12.491 11.8671 12.3956 11.6378 12.3956C11.399 12.3956 11.2005 12.4898 11.0432 12.6782C10.886 12.8665 10.8068 13.1443 10.8068 13.5139C10.8068 13.9371 10.8896 14.2494 11.0539 14.4521C11.2182 14.6548 11.4191 14.7549 11.6555 14.7549C11.8825 14.7549 12.0716 14.6619 12.2229 14.476C12.3742 14.29 12.4486 13.986 12.4486 13.5628C12.4475 13.167 12.3694 12.8737 12.2146 12.683ZM8.19819 14.8956C8.06344 15.0971 7.88732 15.2556 7.66747 15.3713C7.4488 15.4869 7.21713 15.5453 6.97364 15.5453C6.72542 15.5453 6.50321 15.4893 6.30581 15.3784C6.10842 15.2675 5.96658 15.1114 5.87793 14.9099C5.78928 14.7084 5.74555 14.4306 5.74555 14.0766V11.6923H6.72306V13.4233C6.72306 13.9526 6.74079 14.2781 6.77743 14.3973C6.81289 14.5165 6.87908 14.6119 6.97364 14.681C7.0682 14.7513 7.18876 14.7859 7.33533 14.7859C7.50199 14.7859 7.65211 14.7394 7.78449 14.6452C7.91687 14.5522 8.0067 14.4354 8.05517 14.2971C8.10363 14.1588 8.12845 13.8203 8.12845 13.2802V11.6911H9.10596V15.4583H8.19819V14.8956ZM3.77989 13.0978C4.29997 13.2182 4.66402 13.3661 4.86969 13.5413C5.07418 13.7189 5.17583 13.9657 5.17583 14.2828C5.17583 14.6285 5.03399 14.9254 4.75149 15.1734C4.469 15.4213 4.05057 15.5453 3.49621 15.5453C2.99268 15.5453 2.59435 15.4416 2.30122 15.233C2.00808 15.0243 1.8166 14.7418 1.72559 14.3853L2.70664 14.2328C2.74801 14.4271 2.83311 14.5737 2.96077 14.6738C3.08843 14.774 3.26691 14.8241 3.49621 14.8241C3.74916 14.8241 3.93946 14.7764 4.06594 14.6822C4.15222 14.6154 4.19477 14.5272 4.19477 14.4163C4.19477 14.3412 4.17113 14.2781 4.12503 14.228C4.07657 14.1803 3.96783 14.1374 3.79762 14.0968C3.00923 13.9192 2.50925 13.7571 2.29885 13.6104C2.0069 13.4066 1.86033 13.1241 1.86033 12.7628C1.86033 12.4362 1.98681 12.162 2.23975 11.9402C2.4927 11.7185 2.88394 11.6064 3.41466 11.6064C3.92055 11.6064 4.29524 11.6899 4.5411 11.858C4.78695 12.0261 4.95598 12.274 5.04935 12.6031L4.1274 12.7771C4.08839 12.6305 4.01275 12.5184 3.90282 12.4398C3.79289 12.3623 3.63569 12.3229 3.4312 12.3229C3.17353 12.3229 2.98914 12.3599 2.87803 12.4326C2.80356 12.4851 2.76692 12.5518 2.76692 12.6353C2.76692 12.7068 2.79884 12.7664 2.86385 12.8165C2.95604 12.8832 3.25981 12.9774 3.77989 13.0978Z" fill="#B2ED1D"/>
<path fill-rule="evenodd" clip-rule="evenodd" d="M26.568 17.7818C26.1177 18.2337 25.5338 18.4697 24.944 18.49V18.4912H24.9121C24.8778 18.4924 24.8447 18.4924 24.8104 18.4912H17.7043C17.6771 18.4912 17.6499 18.4912 17.6227 18.4912H17.4643V18.4876C16.4513 18.4399 15.4526 18.0274 14.6795 17.2501C13.0307 15.593 13.0307 12.9071 14.6795 11.25C16.3237 9.59773 18.9855 9.59415 20.6356 11.2369C21.8601 10.3619 23.5705 10.474 24.6686 11.5779C25.2678 12.1799 25.574 12.9667 25.5858 13.7559C25.9451 13.8692 26.2844 14.0683 26.5692 14.3544C27.5101 15.2998 27.5101 16.8353 26.568 17.7818ZM19.3141 12.4052C18.813 11.8843 18.1451 11.6232 17.3107 11.6232C16.8497 11.6232 16.4419 11.6983 16.0897 11.8485C15.8237 11.9606 15.5802 12.131 15.3568 12.3623C15.1334 12.5936 14.9585 12.8535 14.8296 13.1444C14.6571 13.539 14.5708 14.0266 14.5708 14.6071C14.5708 15.5144 14.819 16.2273 15.3166 16.7447C15.8142 17.2621 16.4833 17.5208 17.326 17.5208C18.1581 17.5208 18.8224 17.2609 19.32 16.7411C19.8177 16.2213 20.0659 15.5012 20.0659 14.5797C20.0647 13.651 19.8141 12.9262 19.3141 12.4052ZM21.4937 12.782C21.6817 12.6449 21.9417 12.5757 22.2738 12.5757C22.5953 12.5757 22.8377 12.6401 22.9984 12.7688C23.1592 12.8976 23.2644 13.1074 23.3128 13.4007L24.457 13.3506C24.4393 12.8273 24.2501 12.4076 23.8908 12.0941C23.5315 11.7805 22.996 11.6232 22.2857 11.6232C21.8507 11.6232 21.4784 11.6888 21.171 11.8211C20.8637 11.9534 20.6273 12.1453 20.4642 12.3993C20.3011 12.652 20.2184 12.9238 20.2184 13.2147C20.2184 13.6653 20.3921 14.048 20.7396 14.3627C20.9867 14.5857 21.4169 14.774 22.0304 14.9266C22.5067 15.0458 22.8117 15.1293 22.9464 15.1758C23.1426 15.2461 23.2797 15.3284 23.3577 15.4226C23.4357 15.5167 23.4759 15.6324 23.4759 15.7671C23.4759 15.9769 23.3826 16.1605 23.1958 16.3179C23.009 16.4752 22.7313 16.5527 22.3625 16.5527C22.015 16.5527 21.7384 16.4645 21.5339 16.2881C21.3294 16.1116 21.1935 15.8351 21.1261 15.4595L20.0127 15.568C20.0872 16.2058 20.3165 16.691 20.7006 17.0248C21.0848 17.3586 21.6344 17.5243 22.3507 17.5243C22.8424 17.5243 23.2537 17.4552 23.5835 17.3157C23.9133 17.1774 24.1686 16.9652 24.3482 16.6803C24.5291 16.3954 24.6189 16.089 24.6189 15.7623C24.6189 15.4023 24.5433 15.0995 24.3932 14.8539C24.2419 14.6083 24.0338 14.4152 23.7667 14.2745C23.4996 14.1327 23.0882 13.9968 22.5315 13.8644C21.9748 13.7321 21.6249 13.6057 21.4807 13.4829C21.3673 13.3876 21.3105 13.2719 21.3105 13.1372C21.3117 12.9882 21.3732 12.8702 21.4937 12.782ZM17.3213 16.536C16.865 16.536 16.4892 16.3691 16.1925 16.0365C15.8958 15.7039 15.7481 15.2139 15.7481 14.5678C15.7481 13.9121 15.8923 13.4209 16.1807 13.0955C16.4691 12.77 16.8497 12.6079 17.3201 12.6079C17.7917 12.6079 18.17 12.7688 18.4548 13.0907C18.7397 13.4126 18.8815 13.9002 18.8815 14.5535C18.8815 15.2151 18.735 15.7111 18.443 16.0413C18.151 16.3703 17.7775 16.536 17.3213 16.536Z" fill="#B2ED1D"/>
</svg>
