<svg width="29" height="29" viewBox="0 0 29 29" fill="none" xmlns="http://www.w3.org/2000/svg">
<g clip-path="url(#clip0_6160_70518)">
<g style="mix-blend-mode:multiply">
<path d="M25.5 0.25H3.5C1.84315 0.25 0.5 1.59315 0.5 3.25V25.25C0.5 26.9069 1.84315 28.25 3.5 28.25H25.5C27.1569 28.25 28.5 26.9069 28.5 25.25V3.25C28.5 1.59315 27.1569 0.25 25.5 0.25Z" fill="white" fill-opacity="0.01"/>
</g>
<path d="M19.8986 14.25L17.6411 16.5075L18.8748 17.75L22.3748 14.25L18.8748 10.75L17.6323 11.9837L19.8986 14.25Z" fill="#B2ED1D"/>
<path d="M14.0627 18.625L12.3872 18.12L14.9377 9.875L16.6132 10.38L14.0627 18.625Z" fill="#B2ED1D"/>
<path d="M9.10125 14.25L11.3587 11.9925L10.125 10.75L6.625 14.25L10.125 17.75L11.3675 16.5163L9.10125 14.25Z" fill="#B2ED1D"/>
<path d="M17.125 25.625C17.6082 25.625 18 25.2332 18 24.75C18 24.2668 17.6082 23.875 17.125 23.875C16.6418 23.875 16.25 24.2668 16.25 24.75C16.25 25.2332 16.6418 25.625 17.125 25.625Z" fill="#B2ED1D"/>
<path d="M19.75 25.625V23.875C22.1622 23.875 24.125 21.9122 24.125 19.5V9C24.125 6.5878 22.1622 4.625 19.75 4.625H14.5V2.875H19.75C23.127 2.875 25.875 5.62259 25.875 9V19.5C25.875 22.877 23.127 25.625 19.75 25.625Z" fill="#B2ED1D"/>
<path d="M11.875 4.625C12.3582 4.625 12.75 4.23325 12.75 3.75C12.75 3.26675 12.3582 2.875 11.875 2.875C11.3918 2.875 11 3.26675 11 3.75C11 4.23325 11.3918 4.625 11.875 4.625Z" fill="#B2ED1D"/>
<path d="M14.5 25.625H9.25C5.87302 25.625 3.125 22.877 3.125 19.5V9C3.125 5.62259 5.87302 2.875 9.25 2.875V4.625C6.8378 4.625 4.875 6.5878 4.875 9V19.5C4.875 21.9122 6.8378 23.875 9.25 23.875H14.5V25.625Z" fill="#B2ED1D"/>
</g>
<defs>
<clipPath id="clip0_6160_70518">
<rect width="28" height="29" fill="white" transform="translate(0.5)"/>
</clipPath>
</defs>
</svg>
