<svg width="29" height="28" viewBox="0 0 29 28" fill="none" xmlns="http://www.w3.org/2000/svg">
<g clip-path="url(#clip0_6160_70527)">
<g style="mix-blend-mode:multiply">
<path d="M25.5 0H3.5C1.84315 0 0.5 1.34315 0.5 3V25C0.5 26.6569 1.84315 28 3.5 28H25.5C27.1569 28 28.5 26.6569 28.5 25V3C28.5 1.34315 27.1569 0 25.5 0Z" fill="white" fill-opacity="0.01"/>
</g>
<path d="M14.4995 24.5C12.5958 24.5 10.7349 23.9355 9.15216 22.8779C7.56933 21.8203 6.33567 20.3171 5.60718 18.5584C4.87869 16.7996 4.68808 14.8644 5.05946 12.9973C5.43084 11.1302 6.34754 9.41519 7.69362 8.06911C9.0397 6.72302 10.7547 5.80633 12.6217 5.43495C14.4888 5.06357 16.4241 5.25417 18.1828 5.98267C19.9415 6.71116 21.4448 7.94482 22.5024 9.52764C23.56 11.1105 24.1245 12.9714 24.1245 14.875C24.1245 17.4277 23.1104 19.8759 21.3054 21.6809C19.5003 23.486 17.0522 24.5 14.4995 24.5ZM14.4995 7.00001C12.942 7.00001 11.4194 7.46187 10.1244 8.32718C8.82937 9.1925 7.82001 10.4224 7.22397 11.8614C6.62793 13.3004 6.47198 14.8838 6.77584 16.4114C7.07969 17.939 7.8297 19.3422 8.93105 20.4435C10.0324 21.5448 11.4355 22.2949 12.9631 22.5987C14.4907 22.9026 16.0741 22.7466 17.5131 22.1506C18.9521 21.5546 20.182 20.5452 21.0473 19.2502C21.9126 17.9551 22.3745 16.4326 22.3745 14.875C22.3745 12.7865 21.5448 10.7834 20.0679 9.30654C18.5911 7.82969 16.5881 7.00001 14.4995 7.00001Z" fill="#B2ED1D"/>
<path d="M16.7657 18.375L13.6245 15.2338V9.625H15.3745V14.5075L17.9995 17.1413L16.7657 18.375Z" fill="#B2ED1D"/>
<path d="M7.13362 3.50293L4 6.64311L5.23873 7.87925L8.37235 4.73907L7.13362 3.50293Z" fill="#B2ED1D"/>
<path d="M21.8627 3.49512L20.624 4.73126L23.7576 7.87144L24.9964 6.6353L21.8627 3.49512Z" fill="#B2ED1D"/>
</g>
<defs>
<clipPath id="clip0_6160_70527">
<rect width="28" height="28" fill="white" transform="translate(0.5)"/>
</clipPath>
</defs>
</svg>
