<svg width="30" height="28" viewBox="0 0 30 28" fill="none" xmlns="http://www.w3.org/2000/svg">
<g clip-path="url(#clip0_6160_70533)">
<g style="mix-blend-mode:multiply">
<path d="M26.1914 0H4.19141C2.53455 0 1.19141 1.34315 1.19141 3V25C1.19141 26.6569 2.53455 28 4.19141 28H26.1914C27.8483 28 29.1914 26.6569 29.1914 25V3C29.1914 1.34315 27.8483 0 26.1914 0Z" fill="white" fill-opacity="0.01"/>
</g>
<path d="M11.7573 21C11.0651 21 10.3884 20.7947 9.81283 20.4101C9.23726 20.0256 8.78866 19.4789 8.52375 18.8394C8.25884 18.1999 8.18953 17.4961 8.32458 16.8172C8.45963 16.1383 8.79297 15.5146 9.28245 15.0251C9.77194 14.5356 10.3956 14.2023 11.0745 14.0673C11.7535 13.9322 12.4572 14.0015 13.0967 14.2664C13.7363 14.5313 14.2829 14.9799 14.6675 15.5555C15.0521 16.1311 15.2573 16.8078 15.2573 17.5C15.2564 18.428 14.8873 19.3176 14.2311 19.9738C13.575 20.63 12.6853 20.999 11.7573 21ZM11.7573 15.75C11.4112 15.75 11.0729 15.8526 10.7851 16.0449C10.4973 16.2372 10.273 16.5105 10.1405 16.8303C10.0081 17.1501 9.97343 17.5019 10.0409 17.8414C10.1085 18.1809 10.2751 18.4927 10.5199 18.7374C10.7646 18.9822 11.0765 19.1488 11.4159 19.2164C11.7554 19.2839 12.1073 19.2492 12.427 19.1168C12.7468 18.9843 13.0201 18.76 13.2124 18.4722C13.4047 18.1845 13.5073 17.8461 13.5073 17.5C13.5068 17.036 13.3223 16.5912 12.9942 16.2632C12.6661 15.9351 12.2213 15.7505 11.7573 15.75Z" fill="#B2ED1D"/>
<path d="M27.4415 5.25C27.4406 4.32204 27.0715 3.43237 26.4153 2.7762C25.7592 2.12003 24.8695 1.75097 23.9415 1.75C23.3748 1.75395 22.8178 1.89723 22.3195 2.1672L7.979 9.58816C6.70503 10.1844 5.59372 11.0792 4.73939 12.1966C3.88506 13.314 3.31293 14.621 3.07157 16.0067C2.83021 17.3924 2.92675 18.8159 3.35298 20.1563C3.77921 21.4968 4.52256 22.7146 5.51992 23.7064C6.51729 24.6983 7.73923 25.4348 9.08202 25.8536C10.4248 26.2723 11.8488 26.3609 13.2332 26.1119C14.6175 25.8628 15.9213 25.2834 17.034 24.4229C18.1466 23.5623 19.0352 22.4461 19.6243 21.1688L27.053 6.81931C27.3048 6.33429 27.438 5.79647 27.4415 5.25ZM23.9415 3.5C24.2877 3.5 24.626 3.60264 24.9138 3.79493C25.2016 3.98722 25.4259 4.26053 25.5583 4.5803C25.6908 4.90007 25.7254 5.25194 25.6579 5.59141C25.5904 5.93087 25.4237 6.24269 25.179 6.48744C24.9342 6.73218 24.6224 6.89885 24.2829 6.96637C23.9435 7.0339 23.5916 6.99924 23.2718 6.86679C22.9521 6.73434 22.6788 6.51003 22.4865 6.22225C22.2942 5.93446 22.1915 5.59612 22.1915 5.25C22.1921 4.78603 22.3766 4.34122 22.7047 4.01315C23.0328 3.68508 23.4776 3.50053 23.9415 3.5ZM20.4585 5.08226C20.4558 5.13905 20.4415 5.19251 20.4415 5.25C20.4425 6.17796 20.8116 7.06763 21.4677 7.7238C22.1239 8.37997 23.0136 8.74903 23.9415 8.75C23.998 8.75 24.0505 8.736 24.1062 8.73338L20.3159 16.0499C20.0103 14.2561 19.154 12.602 17.8659 11.3169C16.5777 10.0318 14.9215 9.1795 13.1271 8.87819L20.4585 5.08226ZM11.6915 24.5C10.3071 24.5 8.95369 24.0895 7.80255 23.3203C6.6514 22.5511 5.75419 21.4579 5.22438 20.1788C4.69457 18.8997 4.55594 17.4922 4.82604 16.1344C5.09614 14.7765 5.76282 13.5292 6.74179 12.5503C7.72076 11.5713 8.96804 10.9046 10.3259 10.6345C11.6838 10.3644 13.0912 10.503 14.3703 11.0328C15.6494 11.5627 16.7427 12.4599 17.5118 13.611C18.281 14.7622 18.6915 16.1155 18.6915 17.5C18.6894 19.3559 17.9512 21.1351 16.6389 22.4474C15.3266 23.7597 13.5474 24.4979 11.6915 24.5Z" fill="#B2ED1D"/>
</g>
<defs>
<clipPath id="clip0_6160_70533">
<rect width="29" height="28" fill="white" transform="translate(0.5)"/>
</clipPath>
</defs>
</svg>
