<svg width="25" height="24" viewBox="0 0 25 24" fill="none" xmlns="http://www.w3.org/2000/svg">
<rect x="0.645508" width="24" height="24" rx="3" fill="white" fill-opacity="0.01" style="mix-blend-mode:multiply"/>
<path d="M15.6455 17.25H9.54048C9.46621 16.987 9.35779 16.7348 9.21798 16.5L17.1455 8.57251C17.597 8.84955 18.1158 8.99742 18.6455 9.00001C19.207 9.00183 19.7577 8.84603 20.2351 8.55032C20.7124 8.25461 21.0972 7.83087 21.3456 7.32731C21.5941 6.82374 21.6962 6.26056 21.6404 5.70182C21.5845 5.14309 21.373 4.61124 21.0299 4.16676C20.6868 3.72229 20.2258 3.38304 19.6994 3.1876C19.173 2.99216 18.6023 2.94838 18.0522 3.06125C17.5022 3.17411 16.9948 3.43908 16.5879 3.82602C16.181 4.21295 15.8909 4.70632 15.7505 5.25001H9.54048C9.35793 4.54301 8.92381 3.92687 8.31947 3.51706C7.71514 3.10725 6.98209 2.93191 6.25773 3.02392C5.53337 3.11592 4.86743 3.46895 4.38474 4.01683C3.90205 4.56471 3.63574 5.26983 3.63574 6.00001C3.63574 6.73019 3.90205 7.4353 4.38474 7.98318C4.86743 8.53106 5.53337 8.88409 6.25773 8.9761C6.98209 9.0681 7.71514 8.89277 8.31947 8.48296C8.92381 8.07315 9.35793 7.457 9.54048 6.75001H15.7505C15.8247 7.01302 15.9332 7.26517 16.073 7.50001L8.14548 15.4275C7.69401 15.1505 7.17517 15.0026 6.64548 15C6.08397 14.9982 5.53322 15.154 5.05588 15.4497C4.57853 15.7454 4.19376 16.1691 3.94533 16.6727C3.6969 17.1763 3.59479 17.7395 3.6506 18.2982C3.70642 18.8569 3.91792 19.3888 4.26106 19.8333C4.60419 20.2777 5.06518 20.617 5.59158 20.8124C6.11799 21.0079 6.68868 21.0516 7.23873 20.9388C7.78879 20.8259 8.29613 20.5609 8.70304 20.174C9.10995 19.7871 9.4001 19.2937 9.54048 18.75H15.6455V21H21.6455V15H15.6455V17.25ZM6.64548 7.50001C6.34881 7.50001 6.0588 7.41203 5.81212 7.24721C5.56545 7.08239 5.37319 6.84812 5.25966 6.57403C5.14613 6.29994 5.11642 5.99834 5.1743 5.70737C5.23218 5.4164 5.37504 5.14913 5.58482 4.93935C5.7946 4.72957 6.06187 4.58671 6.35284 4.52883C6.64382 4.47095 6.94542 4.50066 7.2195 4.61419C7.49359 4.72772 7.72786 4.91998 7.89268 5.16665C8.05751 5.41333 8.14548 5.70334 8.14548 6.00001C8.14548 6.39783 7.98744 6.77936 7.70614 7.06067C7.42483 7.34197 7.0433 7.50001 6.64548 7.50001ZM18.6455 4.50001C18.9422 4.50001 19.2322 4.58798 19.4788 4.7528C19.7255 4.91762 19.9178 5.15189 20.0313 5.42598C20.1448 5.70007 20.1745 6.00167 20.1167 6.29264C20.0588 6.58361 19.9159 6.85089 19.7061 7.06067C19.4964 7.27045 19.2291 7.41331 18.9381 7.47119C18.6471 7.52906 18.3455 7.49936 18.0715 7.38583C17.7974 7.2723 17.5631 7.08004 17.3983 6.83336C17.2335 6.58669 17.1455 6.29668 17.1455 6.00001C17.1455 5.60218 17.3035 5.22065 17.5848 4.93935C17.8661 4.65804 18.2477 4.50001 18.6455 4.50001ZM6.64548 19.5C6.34881 19.5 6.0588 19.412 5.81212 19.2472C5.56545 19.0824 5.37319 18.8481 5.25966 18.574C5.14613 18.2999 5.11642 17.9983 5.1743 17.7074C5.23218 17.4164 5.37504 17.1491 5.58482 16.9393C5.7946 16.7296 6.06187 16.5867 6.35284 16.5288C6.64382 16.471 6.94542 16.5007 7.2195 16.6142C7.49359 16.7277 7.72786 16.92 7.89268 17.1667C8.05751 17.4133 8.14548 17.7033 8.14548 18C8.14548 18.3978 7.98744 18.7794 7.70614 19.0607C7.42483 19.342 7.0433 19.5 6.64548 19.5ZM17.1455 16.5H20.1455V19.5H17.1455V16.5Z" fill="#B2ED1D"/>
</svg>
