<svg width="25" height="24" viewBox="0 0 25 24" fill="none" xmlns="http://www.w3.org/2000/svg">
<rect x="0.268066" width="24" height="24" rx="3" fill="white" fill-opacity="0.01" style="mix-blend-mode:multiply"/>
<path d="M18.2683 7.5L17.2077 8.56057L19.8972 11.25H9.19244C9.04406 10.5302 8.68803 9.86961 8.16834 9.34992C7.64865 8.83023 6.98808 8.4742 6.26826 8.32582V1.5H4.76826V8.32582C3.92143 8.49875 3.16033 8.9589 2.61372 9.62841C2.06711 10.2979 1.76855 11.1357 1.76855 12C1.76855 12.8643 2.06711 13.7021 2.61372 14.3716C3.16033 15.0411 3.92143 15.5012 4.76826 15.6742V22.5H6.26826V15.6742C6.98808 15.5258 7.64865 15.1698 8.16834 14.6501C8.68803 14.1304 9.04406 13.4698 9.19244 12.75H19.8972L17.2077 15.4394L18.2683 16.5L22.7683 12L18.2683 7.5ZM5.51826 14.25C5.07326 14.25 4.63824 14.118 4.26823 13.8708C3.89822 13.6236 3.60983 13.2722 3.43953 12.861C3.26924 12.4499 3.22468 11.9975 3.3115 11.561C3.39831 11.1246 3.6126 10.7237 3.92727 10.409C4.24194 10.0943 4.64285 9.88005 5.07931 9.79323C5.51577 9.70642 5.96817 9.75097 6.3793 9.92127C6.79043 10.0916 7.14184 10.38 7.38907 10.75C7.6363 11.12 7.76826 11.555 7.76826 12C7.76761 12.5965 7.53034 13.1685 7.10853 13.5903C6.68671 14.0121 6.1148 14.2493 5.51826 14.25Z" fill="#B2ED1D"/>
</svg>
