<svg width="28" height="33" viewBox="0 0 28 33" fill="none" xmlns="http://www.w3.org/2000/svg">
<path d="M19.4997 1.75737C20.6794 2.64829 21.4111 3.796 21.7308 5.24118C21.748 5.31742 21.748 5.31742 21.7655 5.3952C21.7954 5.56475 21.8026 5.71968 21.8015 5.89167C21.8013 5.95176 21.8011 6.01185 21.8009 6.07376C21.8003 6.13568 21.7998 6.1976 21.7992 6.26139C21.7989 6.32456 21.7987 6.38773 21.7984 6.45281C21.7976 6.6081 21.7965 6.76339 21.7952 6.91869C21.8725 6.91494 21.9498 6.9112 22.0294 6.90734C23.7858 6.84899 25.1952 7.41293 26.4759 8.60829C27.478 9.65847 28.0144 11.033 27.9997 12.4835C27.9608 13.7579 27.4909 15.0669 26.6135 16.003C26.5801 16.0389 26.5468 16.0747 26.5124 16.1117C26.0456 16.6095 25.5595 17.0885 25.0755 17.5694C24.9669 17.6776 24.8583 17.7858 24.7497 17.894C24.5176 18.1253 24.2853 18.3565 24.0531 18.5877C23.6859 18.9531 23.3191 19.319 22.9525 19.685C22.8898 19.7476 22.8271 19.8102 22.7644 19.8727C22.6695 19.9675 22.5746 20.0622 22.4797 20.157C22.1235 20.5125 21.7674 20.8679 21.4111 21.2233C21.3786 21.2557 21.3462 21.2882 21.3127 21.3216C20.7841 21.8489 20.255 22.3756 19.7257 22.9021C19.1809 23.444 18.6369 23.9866 18.0936 24.5299C17.789 24.8344 17.484 25.1386 17.1782 25.4419C16.8914 25.7265 16.6054 26.0119 16.3201 26.2981C16.2151 26.403 16.1098 26.5076 16.0042 26.6119C15.8604 26.7539 15.7178 26.8971 15.5754 27.0407C15.5331 27.0819 15.4908 27.1231 15.4472 27.1656C15.2163 27.4005 15.2163 27.4005 15.1317 27.7143C15.1676 27.9153 15.2179 27.9938 15.3582 28.1399C15.3996 28.1837 15.4409 28.2275 15.4835 28.2727C15.5263 28.3159 15.5692 28.3591 15.6134 28.4037C15.6519 28.4435 15.6905 28.4832 15.7303 28.5242C15.8488 28.6449 15.9689 28.7639 16.0895 28.8826C16.1784 28.9708 16.2674 29.0591 16.3563 29.1474C16.4946 29.2845 16.6331 29.4214 16.7717 29.5581C16.9068 29.6916 17.0415 29.8254 17.1762 29.9592C17.2386 30.0204 17.2386 30.0204 17.3022 30.0829C17.3599 30.1404 17.3599 30.1404 17.4189 30.1991C17.4527 30.2325 17.4865 30.2659 17.5213 30.3003C17.7494 30.5678 17.7627 30.8077 17.7542 31.148C17.7219 31.4723 17.5879 31.6688 17.348 31.8757C17.1109 32.0526 16.9916 32.0961 16.7 32.1095C16.6414 32.1134 16.5828 32.1174 16.5224 32.1214C16.0126 32.0196 15.6048 31.5135 15.2486 31.1591C15.1718 31.083 15.1718 31.083 15.0934 31.0053C14.9857 30.8984 14.8782 30.7913 14.7709 30.684C14.608 30.5215 14.4439 30.3603 14.2797 30.199C14.1746 30.0944 14.0697 29.9897 13.9648 29.8849C13.9163 29.8375 13.8677 29.7902 13.8178 29.7414C13.3001 29.2183 12.9098 28.5876 12.8927 27.8391C12.9135 26.9015 13.2392 26.2871 13.905 25.6343C13.9521 25.587 13.9991 25.5398 14.0476 25.4912C14.2041 25.3346 14.3614 25.179 14.5188 25.0234C14.6317 24.9107 14.7446 24.798 14.8574 24.6852C15.0998 24.4431 15.3426 24.2015 15.5857 23.9602C15.9378 23.6106 16.2891 23.2602 16.6401 22.9096C17.2106 22.3398 17.7816 21.7705 18.353 21.2016C18.3872 21.1676 18.4213 21.1336 18.4565 21.0986C18.7334 20.8229 19.0103 20.5472 19.2872 20.2716C19.5291 20.0307 19.7711 19.7898 20.0131 19.5489C20.0471 19.5149 20.0812 19.481 20.1163 19.4461C20.6856 18.8792 21.2544 18.3118 21.8228 17.7441C22.1727 17.3946 22.5231 17.0456 22.8741 16.6972C23.1433 16.4299 23.4119 16.162 23.6802 15.8938C23.7899 15.7843 23.8999 15.6751 24.0101 15.566C24.9487 14.6373 25.7288 13.7647 25.7474 12.3746C25.7495 11.4625 25.4346 10.7555 24.8217 10.0801C24.0437 9.33746 23.1591 9.12916 22.1167 9.15293C20.9217 9.21634 20.1008 10.1366 19.3135 10.9359C19.2215 11.0285 19.1295 11.121 19.0375 11.2136C18.8405 11.4117 18.6439 11.6101 18.4475 11.8088C18.1368 12.123 17.8253 12.4365 17.5137 12.7498C16.7404 13.5276 15.9681 14.3065 15.196 15.0856C14.5949 15.6922 13.9934 16.2986 13.3911 16.904C13.0814 17.2154 12.7723 17.5274 12.4637 17.8398C12.2717 18.0338 12.0792 18.2274 11.8865 18.4207C11.7974 18.5104 11.7085 18.6003 11.6198 18.6905C11.4987 18.8136 11.3767 18.9359 11.2545 19.0581C11.2197 19.0938 11.185 19.1295 11.1491 19.1664C10.8877 19.4252 10.618 19.6096 10.2402 19.6429C9.85855 19.5929 9.59305 19.4996 9.33642 19.1928C9.1147 18.8769 9.06023 18.6569 9.10953 18.2741C9.24444 17.9421 9.43404 17.7288 9.68472 17.4827C9.72348 17.4439 9.76225 17.4051 9.80219 17.3651C9.93179 17.2355 10.0621 17.1066 10.1923 16.9778C10.2856 16.8848 10.3788 16.7918 10.4719 16.6988C10.6725 16.4987 10.8733 16.2989 11.0743 16.0994C11.3926 15.7834 11.7101 15.4667 12.0274 15.1498C12.816 14.3627 13.6056 13.5766 14.3955 12.7908C15.009 12.1804 15.6222 11.5697 16.2345 10.9581C16.5496 10.6435 16.8652 10.3295 17.1814 10.016C17.3785 9.82017 17.5751 9.62382 17.7716 9.42732C17.8623 9.33677 17.9533 9.24644 18.0445 9.15636C18.9068 8.30441 19.5606 7.5064 19.5736 6.24526C19.562 5.27942 19.2539 4.49276 18.5604 3.80889C17.7153 3.11682 16.8019 2.96145 15.7421 3.04751C14.5556 3.24836 13.7026 4.2813 12.9005 5.09322C12.7784 5.21583 12.6562 5.3384 12.534 5.46089C12.2723 5.72346 12.011 5.98648 11.75 6.24983C11.3725 6.63077 10.9942 7.01093 10.6157 7.39089C10.0011 8.00784 9.38707 8.62531 8.77342 9.24317C8.73679 9.28005 8.70017 9.31692 8.66243 9.35492C8.62576 9.39184 8.58908 9.42877 8.5513 9.46682C8.03016 9.99152 7.5089 10.5161 6.98748 11.0405C6.95073 11.0775 6.91397 11.1145 6.8761 11.1525C6.2636 11.7686 5.65083 12.3843 5.03794 12.9999C4.66033 13.3793 4.28299 13.7589 3.90599 14.1388C3.64812 14.3987 3.39003 14.6583 3.13177 14.9178C2.98276 15.0675 2.8339 15.2174 2.68525 15.3675C2.52424 15.53 2.36284 15.6921 2.20134 15.8542C2.1543 15.9019 2.10727 15.9496 2.05881 15.9987C1.99387 16.0636 1.99387 16.0636 1.92763 16.1298C1.89043 16.1673 1.85322 16.2047 1.81489 16.2433C1.53718 16.4821 1.27663 16.5032 0.920378 16.4961C0.617031 16.4486 0.426084 16.3058 0.223108 16.0805C0.0316592 15.7628 -0.0486863 15.4147 0.0299246 15.0481C0.235605 14.6953 0.505388 14.4244 0.793297 14.1374C0.844602 14.0858 0.895908 14.0341 0.948768 13.9809C1.12058 13.8081 1.29285 13.6358 1.46512 13.4634C1.58852 13.3396 1.71183 13.2156 1.83514 13.0917C2.13531 12.7901 2.43583 12.4889 2.73649 12.1878C2.981 11.9429 3.22541 11.6979 3.46973 11.4528C3.50454 11.4179 3.53934 11.383 3.57521 11.347C3.64593 11.2761 3.71665 11.2052 3.78737 11.1342C4.45038 10.4692 5.11382 9.80463 5.77738 9.14017C6.38366 8.53305 6.9894 7.92541 7.5949 7.31751C8.21728 6.69267 8.84001 6.06819 9.46314 5.44409C9.8127 5.09397 10.1621 4.74371 10.5112 4.39308C10.8084 4.09447 11.106 3.79621 11.404 3.49838C11.5559 3.3466 11.7076 3.19462 11.8589 3.0423C12.0235 2.87675 12.1886 2.7118 12.3539 2.54699C12.4245 2.47555 12.4245 2.47555 12.4965 2.40267C13.3253 1.58081 14.2919 1.10446 15.4202 0.853848C15.4722 0.841372 15.5243 0.828897 15.5779 0.816043C16.9525 0.592474 18.3597 0.987327 19.4997 1.75737Z" fill="#B2ED1D"/>
<path d="M16.7108 5.15678C17.0299 5.30042 17.2158 5.47153 17.4161 5.75737C17.5106 6.04153 17.5513 6.31684 17.4213 6.59284C17.2311 6.89133 17.0256 7.14341 16.7733 7.3908C16.7357 7.42842 16.6981 7.46603 16.6594 7.50479C16.5347 7.6295 16.4093 7.7535 16.2838 7.87752C16.1937 7.9673 16.1037 8.05712 16.0137 8.14699C15.8204 8.33987 15.6268 8.53244 15.4329 8.72479C15.126 9.02937 14.8199 9.33472 14.5139 9.6402C13.7536 10.3989 12.9925 11.1565 12.231 11.9139C11.6391 12.5027 11.0475 13.0917 10.4568 13.6816C10.1531 13.9849 9.84872 14.2875 9.54391 14.5897C9.35387 14.7784 9.16437 14.9676 8.97502 15.157C8.88759 15.2442 8.79994 15.3312 8.71204 15.418C7.90304 16.2169 7.22261 17.0152 7.21363 18.2056C7.22692 19.1062 7.47064 19.9433 8.0905 20.6213C8.86802 21.3151 9.70135 21.5465 10.7185 21.5086C12.1375 21.4154 13.0601 20.2622 13.9931 19.3198C14.0795 19.2328 14.1659 19.1458 14.2523 19.0589C14.4368 18.8732 14.6211 18.6875 14.8054 18.5017C15.0969 18.2078 15.3887 17.9143 15.6807 17.6208C15.781 17.52 15.8813 17.4192 15.9816 17.3184C16.0317 17.2679 16.0819 17.2175 16.1336 17.1655C16.8121 16.4834 17.4903 15.8009 18.1678 15.1178C18.6265 14.6554 19.0857 14.1934 19.5454 13.7319C19.7882 13.4881 20.0307 13.2441 20.2727 12.9995C20.4997 12.77 20.7274 12.5411 20.9555 12.3127C21.039 12.2288 21.1224 12.1447 21.2054 12.0603C21.3189 11.9452 21.4331 11.831 21.5475 11.7169C21.5802 11.6833 21.6129 11.6498 21.6465 11.6153C21.9165 11.3489 22.1572 11.2614 22.5274 11.2133C22.9136 11.26 23.1718 11.4517 23.433 11.7335C23.6088 12.0013 23.6238 12.2165 23.598 12.5319C23.4592 12.9104 23.2394 13.1867 22.9561 13.4663C22.9179 13.5051 22.8796 13.5438 22.8402 13.5838C22.7129 13.7125 22.5847 13.8403 22.4565 13.9681C22.3646 14.0606 22.2728 14.1532 22.181 14.2458C21.9321 14.4966 21.6824 14.7466 21.4325 14.9965C21.2235 15.2056 21.0148 15.4151 20.8062 15.6246C20.3134 16.1194 19.82 16.6136 19.3262 17.1073C18.8182 17.6152 18.3113 18.1241 17.8048 18.6336C17.369 19.072 16.9324 19.5099 16.4954 19.9472C16.2349 20.2079 15.9746 20.4688 15.7149 20.7304C15.4703 20.9767 15.2249 21.2221 14.9789 21.4671C14.8893 21.5565 14.7999 21.6463 14.7109 21.7363C13.5573 22.9019 12.1655 23.7641 10.4776 23.7785C8.94939 23.7825 7.61738 23.203 6.52189 22.1393C5.52423 21.1309 4.96547 19.7226 4.94775 18.3064C4.97106 16.445 5.9311 15.1045 7.19719 13.842C7.28993 13.7488 7.38264 13.6555 7.47531 13.5623C7.72538 13.3108 7.97604 13.06 8.22685 12.8093C8.48986 12.5463 8.75239 12.2828 9.01499 12.0194C9.45559 11.5776 9.89659 11.1362 10.3378 10.695C10.8477 10.1852 11.3569 9.67465 11.8658 9.16375C12.3034 8.72437 12.7415 8.28537 13.1798 7.84669C13.4413 7.58498 13.7027 7.32315 13.9637 7.06097C14.2088 6.81481 14.4544 6.56912 14.7004 6.32379C14.7905 6.23373 14.8805 6.14351 14.9703 6.05311C15.0929 5.92972 15.2161 5.80694 15.3395 5.6843C15.3925 5.63051 15.3925 5.63051 15.4466 5.57564C15.8075 5.21957 16.1915 4.98105 16.7108 5.15678Z" fill="#B2ED1D"/>
</svg>
