<svg width="29" height="29" viewBox="0 0 29 29" fill="none" xmlns="http://www.w3.org/2000/svg">
<g clip-path="url(#clip0_6160_70514)">
<g style="mix-blend-mode:multiply">
<path d="M25.5 0.25H3.5C1.84315 0.25 0.5 1.59315 0.5 3.25V25.25C0.5 26.9069 1.84315 28.25 3.5 28.25H25.5C27.1569 28.25 28.5 26.9069 28.5 25.25V3.25C28.5 1.59315 27.1569 0.25 25.5 0.25Z" fill="white" fill-opacity="0.01"/>
</g>
<path d="M14.5 3.75C15.3653 3.75 16.2112 4.00659 16.9306 4.48732C17.6501 4.96805 18.2108 5.65133 18.542 6.45076C18.8731 7.25019 18.9597 8.12985 18.7909 8.97852C18.6221 9.82719 18.2054 10.6067 17.5936 11.2186C16.9817 11.8304 16.2022 12.2471 15.3535 12.4159C14.5049 12.5847 13.6252 12.4981 12.8258 12.167C12.0263 11.8358 11.3431 11.2751 10.8623 10.5556C10.3816 9.83615 10.125 8.99029 10.125 8.125C10.125 6.96468 10.5859 5.85188 11.4064 5.03141C12.2269 4.21094 13.3397 3.75 14.5 3.75ZM14.5 2C13.2886 2 12.1044 2.35923 11.0971 3.03225C10.0899 3.70527 9.30482 4.66187 8.84124 5.78106C8.37765 6.90026 8.25636 8.13179 8.49269 9.31993C8.72902 10.5081 9.31237 11.5994 10.169 12.456C11.0256 13.3126 12.1169 13.896 13.3051 14.1323C14.4932 14.3686 15.7247 14.2473 16.8439 13.7838C17.9631 13.3202 18.9197 12.5351 19.5928 11.5279C20.2658 10.5206 20.625 9.33641 20.625 8.125C20.625 6.50055 19.9797 4.94263 18.831 3.79397C17.6824 2.64531 16.1245 2 14.5 2Z" fill="#B2ED1D"/>
<path d="M23.25 26.5H21.5V22.125C21.5 21.5505 21.3868 20.9816 21.167 20.4508C20.9471 19.92 20.6248 19.4377 20.2186 19.0314C19.8123 18.6252 19.33 18.3029 18.7992 18.083C18.2684 17.8632 17.6995 17.75 17.125 17.75H11.875C10.7147 17.75 9.60188 18.2109 8.78141 19.0314C7.96094 19.8519 7.5 20.9647 7.5 22.125V26.5H5.75V22.125C5.75 20.5005 6.39531 18.9426 7.54397 17.794C8.69263 16.6453 10.2506 16 11.875 16H17.125C18.7495 16 20.3074 16.6453 21.456 17.794C22.6047 18.9426 23.25 20.5005 23.25 22.125V26.5Z" fill="#B2ED1D"/>
</g>
<defs>
<clipPath id="clip0_6160_70514">
<rect width="28" height="29" fill="white" transform="translate(0.5)"/>
</clipPath>
</defs>
</svg>
